<svg xmlns="http://www.w3.org/2000/svg" width="24" height="24" viewBox="0 0 24 24" fill="none">
  <svg data-s1-part="glyph" x="3" y="3.0024" width="18" height="17.9953" viewBox="0 0 18 17.9953" preserveAspectRatio="xMidYMid meet">
    <path d="M17.7753 13.5795L15.3146 10.1076V6.60194C15.3146 6.60194 15.3034 6.50082 15.3034 6.45588C15.1349 6.56824 14.9439 6.64689 14.7528 6.7143C14.5731 6.78172 14.382 6.81543 14.191 6.8379V10.2874C14.191 10.3997 14.2247 10.5121 14.2922 10.6132L16.809 14.1638L11.3708 14.1863H10.7416H10H7.96629H7.22471H6.58426L1.11232 14.2087L3.67413 10.5907C3.74155 10.5008 3.77526 10.3772 3.77526 10.2649V6.33228C3.77526 4.8716 4.39324 3.4671 5.48313 2.47833C6.44943 1.59068 7.68539 1.11877 8.97753 1.11877C9.14607 1.11877 9.32584 1.11877 9.49439 1.14124C10.4607 1.23113 11.3483 1.62439 12.0899 2.20866C12.236 2.07383 12.3933 1.96147 12.5618 1.87158C12.7304 1.77046 12.9214 1.69181 13.1124 1.63563C12.1461 0.759219 10.9438 0.152475 9.59551 0.0288786C7.78651 -0.139662 6.05617 0.433375 4.71908 1.64686C3.40447 2.84912 2.65165 4.55699 2.65165 6.33228V10.0851L0.202205 13.5795C-0.0337513 13.9166 -0.0674594 14.3436 0.123553 14.7031C0.314565 15.0627 0.685353 15.2874 1.08985 15.2874H6.33707C6.33707 15.2874 6.33707 15.3211 6.33707 15.3323C6.33707 16.793 7.52808 17.9953 9 17.9953C10.4719 17.9953 11.6629 16.8042 11.6629 15.3323C11.6629 15.3211 11.6629 15.2986 11.6629 15.2874H16.9102C17.3146 15.2874 17.6854 15.0627 17.8764 14.7031C18.0675 14.3436 18.0338 13.9054 17.7978 13.5795H17.7753ZM10.5281 15.3323C10.5281 16.175 9.8427 16.8717 8.98876 16.8717C8.13483 16.8717 7.44943 16.1863 7.44943 15.3323C7.44943 15.3211 7.44943 15.2986 7.44943 15.2874H10.5169C10.5169 15.2874 10.5169 15.3211 10.5169 15.3323H10.5281Z" fill="black"/>
    <path d="M13.8773 2.37668C13.8773 2.37668 13.8323 2.37668 13.8098 2.37668C13.5964 2.37668 13.3941 2.42162 13.2031 2.50028C13.0233 2.56769 12.8548 2.68005 12.7087 2.80365C12.3042 3.14073 12.0458 3.63511 12.0458 4.19691C12.0458 5.20815 12.866 6.01715 13.866 6.01715C13.9559 6.01715 14.0458 6.00591 14.1245 5.99467C14.3155 5.96097 14.5065 5.90479 14.675 5.82613C14.8773 5.72501 15.0458 5.60141 15.2031 5.43287C15.5065 5.10703 15.6975 4.66883 15.6975 4.19691C15.6975 3.18567 14.8773 2.37668 13.8773 2.37668Z" fill="black"/>
  </svg>
</svg>
