<svg xmlns="http://www.w3.org/2000/svg" width="24" height="24" viewBox="0 0 24 24" fill="none">
  <svg data-s1-part="glyph" x="3.0024" y="3" width="17.994" height="18" viewBox="0 0 17.994 18" preserveAspectRatio="xMidYMid meet">
    <path d="M8.99784 17.9998C10.1498 17.9998 11.0858 17.1238 11.2178 16.0078H6.78984C6.90984 17.1238 7.85784 17.9998 9.00984 17.9998H8.99784Z" fill="black"/>
    <path d="M17.889 14.22L15.153 10.356V6.42C15.153 3.204 12.801 0.336 9.597 0.024C9.393 0 9.189 0 8.997 0C5.589 0 2.841 2.76 2.841 6.156V10.356L0.104999 14.22C-0.159001 14.592 0.104999 15.108 0.560999 15.108H17.433C17.889 15.108 18.153 14.592 17.889 14.22Z" fill="black"/>
  </svg>
</svg>
